<!--?xml version="1.0" encoding="utf-8"?-->
<!-- Generator: Adobe Illustrator 18.1.1, SVG Export Plug-In . SVG Version: 6.00 Build 0)  -->

<svg version="1.1" id="_x32_" xmlns="http://www.w3.org/2000/svg" xmlns:xlink="http://www.w3.org/1999/xlink" x="0px" y="0px" viewBox="0 0 512 512" style="width: 256px; height: 256px; opacity: 1;" xml:space="preserve">
<style type="text/css">
	.st0{fill:#4B4B4B;}
</style>
<g>
	<polygon class="st0" points="131.549,358.824 88.822,358.824 88.822,316.089 64.362,316.089 64.362,383.285 131.549,383.285 	" style="fill: rgb(255, 255, 255);"></polygon>
	<polygon class="st0" points="380.451,0 380.451,24.461 423.178,24.461 423.178,67.196 447.638,67.196 447.638,0 	" style="fill: rgb(255, 255, 255);"></polygon>
	<polygon class="st0" points="88.822,24.453 131.549,24.461 131.549,0 64.362,0 64.362,67.196 88.822,67.196 	" style="fill: rgb(255, 255, 255);"></polygon>
	<polygon class="st0" points="423.178,358.824 380.451,358.824 380.451,383.285 447.638,383.285 447.638,316.089 423.178,316.089 	
		" style="fill: rgb(255, 255, 255);"></polygon>
	<path class="st0" d="M255.996,316.67c69.052,0,125.028-55.969,125.028-125.028c0-69.051-55.976-125.028-125.028-125.028
		c-69.051,0-125.028,55.977-125.028,125.028C130.968,260.701,186.945,316.67,255.996,316.67z" style="fill: rgb(255, 255, 255);"></path>
	<path class="st0" d="M255.996,341.378c-62.044,0-114.78,55.833-127.194,96.163C115.64,480.308,131.9,512,175.335,512h161.322
		c43.435,0,59.695-31.692,46.533-74.458C370.776,397.211,318.04,341.378,255.996,341.378z" style="fill: rgb(255, 255, 255);"></path>
</g>
</svg>
